<?xml version="1.0" encoding="UTF-8"?>
<svg id="Layer_2" data-name="Layer 2" xmlns="http://www.w3.org/2000/svg" viewBox="0 0 481.7 175.96">
  <defs>
    <style>
      .cls-1, .cls-2, .cls-3, .cls-4 {
        fill: #5177bb;
      }

      .cls-1, .cls-3 {
        font-family: Poppins-Medium, Poppins;
        font-weight: 500;
      }

      .cls-1, .cls-4 {
        font-size: 58px;
      }

      .cls-2 {
        stroke-width: 0px;
      }

      .cls-3 {
        font-size: 37px;
      }

      .cls-4 {
        font-family: Poppins-Bold, Poppins;
        font-weight: 700;
      }
    </style>
  </defs>
  <g id="Layer_1-2" data-name="Layer 1">
    <g>
      <text class="cls-3" transform="translate(105.95 31.39)"><tspan x="0" y="0">ALL PEOPLES</tspan></text>
      <text class="cls-4" transform="translate(123.21 87.77)"><tspan x="0" y="0">NNOVATION</tspan></text>
      <text class="cls-1" transform="translate(107.21 142.2)"><tspan x="0" y="0">HUB</tspan></text>
      <g>
        <circle class="cls-2" cx="72.27" cy="127.31" r="15.3"/>
        <circle class="cls-2" cx="34.85" cy="20.65" r="15.3"/>
        <circle class="cls-2" cx="86.86" cy="66.56" r="15.3"/>
        <path class="cls-2" d="M109.54,47.05v1.88c3.79,4.87,6.05,10.98,6.05,17.63s-2.26,12.76-6.05,17.63v3.57h9.92v-40.72h-9.92Z"/>
        <path class="cls-2" d="M64.38,84.46c-2.02,1.64-4.6,2.62-7.4,2.62-6.51,0-11.78-5.28-11.78-11.78s5.28-11.78,11.78-11.78c.44,0,.87.03,1.3.08.61-5.94,3.04-11.34,6.71-15.64-2.52-.73-5.19-1.13-7.95-1.13-15.73,0-28.49,12.75-28.49,28.49,0,4.97,1.28,9.64,3.51,13.71l-8.49,7.59c-.2-.13-.39-.27-.6-.39-7.31-4.23-16.67-1.73-20.9,5.58-4.23,7.31-1.73,16.67,5.58,20.9,7.31,4.23,16.67,1.73,20.9-5.58,2.7-4.66,2.65-10.15.37-14.62l7.93-7.09c5.16,5.18,12.3,8.38,20.18,8.38,8.55,0,16.21-3.77,21.43-9.73-5.62-1.72-10.51-5.11-14.08-9.6Z"/>
      </g>
    </g>
  </g>
</svg>