<svg xmlns="http://www.w3.org/2000/svg" viewBox="0 0 481.7 175.96"><defs><style>.cls-1{font-size:37px;}.cls-1,.cls-2,.cls-3,.cls-4{fill:#fff;}.cls-1,.cls-3{font-family:Poppins-Medium, Poppins;font-weight:500;}.cls-2,.cls-3{font-size:58px;}.cls-2{font-family:Poppins-Bold, Poppins;font-weight:700;}</style></defs><g id="Layer_2" data-name="Layer 2"><g id="Layer_1-2" data-name="Layer 1"><text class="cls-1" transform="translate(105.95 31.39)">ALL PEOPLES</text><text class="cls-2" transform="translate(123.21 87.77)">NNOVATION</text><text class="cls-3" transform="translate(107.21 142.2)">HUB</text><circle class="cls-4" cx="72.27" cy="127.31" r="15.3"/><circle class="cls-4" cx="34.85" cy="20.65" r="15.3"/><circle class="cls-4" cx="86.86" cy="66.56" r="15.3"/><path class="cls-4" d="M109.54,47.05v1.88a28.69,28.69,0,0,1,0,35.27v3.57h9.92V47.05Z"/><path class="cls-4" d="M64.38,84.46A11.78,11.78,0,1,1,57,63.51c.44,0,.88,0,1.3.07A28.66,28.66,0,0,1,65,47.94,28.48,28.48,0,0,0,32.06,89l-8.49,7.59c-.2-.13-.4-.27-.61-.39a15.31,15.31,0,1,0,6,6.29l7.93-7.09a28.48,28.48,0,0,0,41.61-1.35A28.74,28.74,0,0,1,64.38,84.46Z"/></g></g></svg>